%FSLAX34Y34*%
%MOMM*%
%LNSOLDERMASK_TOP*%
G71*
G01*
%ADD10R, 0.50X1.50*%
%ADD11C, 2.80*%
%ADD12R, 0.85X1.47*%
%ADD13R, 1.60X1.00*%
%ADD14C, 2.60*%
%ADD15R, 1.47X0.85*%
%ADD16C, 2.80*%
%ADD17R, 1.00X1.60*%
%ADD18R, 1.50X1.80*%
%ADD19R, 1.80X1.50*%
%ADD20R, 1.58X2.99*%
%ADD21R, 2.99X1.58*%
%LPD*%
X166781Y-234381D02*
G54D10*
D03*
X171781Y-234381D02*
G54D10*
D03*
X176781Y-234381D02*
G54D10*
D03*
X181781Y-234381D02*
G54D10*
D03*
X186781Y-234381D02*
G54D10*
D03*
X166781Y-283381D02*
G54D10*
D03*
X171781Y-283381D02*
G54D10*
D03*
X176781Y-283381D02*
G54D10*
D03*
X181781Y-283381D02*
G54D10*
D03*
X186781Y-283381D02*
G54D10*
D03*
X184781Y-334381D02*
G54D11*
D03*
X134781Y-334381D02*
G54D11*
D03*
G36*
X135150Y-388338D02*
X148150Y-388338D01*
X148150Y-408338D01*
X135150Y-408338D01*
X135150Y-388338D01*
G37*
G36*
X114150Y-388338D02*
X127150Y-388338D01*
X127150Y-408338D01*
X114150Y-408338D01*
X114150Y-388338D01*
G37*
G36*
X147056Y-412150D02*
X160056Y-412150D01*
X160056Y-432150D01*
X147056Y-432150D01*
X147056Y-412150D01*
G37*
G36*
X126056Y-412150D02*
X139056Y-412150D01*
X139056Y-432150D01*
X126056Y-432150D01*
X126056Y-412150D01*
G37*
X253135Y-180027D02*
G54D12*
D03*
X265835Y-180027D02*
G54D12*
D03*
X278535Y-180027D02*
G54D12*
D03*
X291235Y-180027D02*
G54D12*
D03*
X291235Y-230827D02*
G54D12*
D03*
X278535Y-230827D02*
G54D12*
D03*
X265835Y-230827D02*
G54D12*
D03*
X253135Y-230827D02*
G54D12*
D03*
X354735Y-180027D02*
G54D12*
D03*
X367435Y-180027D02*
G54D12*
D03*
X380135Y-180027D02*
G54D12*
D03*
X392835Y-180027D02*
G54D12*
D03*
X392835Y-230827D02*
G54D12*
D03*
X380135Y-230827D02*
G54D12*
D03*
X367435Y-230827D02*
G54D12*
D03*
X354735Y-230827D02*
G54D12*
D03*
G36*
X232482Y-275784D02*
X232482Y-288784D01*
X212482Y-288784D01*
X212482Y-275784D01*
X232482Y-275784D01*
G37*
G36*
X232482Y-254784D02*
X232482Y-267784D01*
X212482Y-267784D01*
X212482Y-254784D01*
X232482Y-254784D01*
G37*
G36*
X305409Y-269275D02*
X318409Y-269275D01*
X318409Y-289275D01*
X305409Y-289275D01*
X305409Y-269275D01*
G37*
G36*
X284409Y-269275D02*
X297409Y-269275D01*
X297409Y-289275D01*
X284409Y-289275D01*
X284409Y-269275D01*
G37*
G36*
X288823Y-145971D02*
X288823Y-158971D01*
X268823Y-158971D01*
X268823Y-145971D01*
X288823Y-145971D01*
G37*
G36*
X288823Y-124971D02*
X288823Y-137971D01*
X268823Y-137971D01*
X268823Y-124971D01*
X288823Y-124971D01*
G37*
G36*
X309857Y-145971D02*
X309857Y-158971D01*
X289857Y-158971D01*
X289857Y-145971D01*
X309857Y-145971D01*
G37*
G36*
X309857Y-124971D02*
X309857Y-137971D01*
X289857Y-137971D01*
X289857Y-124971D01*
X309857Y-124971D01*
G37*
G36*
X390423Y-145971D02*
X390423Y-158971D01*
X370423Y-158971D01*
X370423Y-145971D01*
X390423Y-145971D01*
G37*
G36*
X390423Y-124971D02*
X390423Y-137971D01*
X370423Y-137971D01*
X370423Y-124971D01*
X390423Y-124971D01*
G37*
G36*
X408123Y-155989D02*
X395123Y-155989D01*
X395123Y-135989D01*
X408123Y-135989D01*
X408123Y-155989D01*
G37*
G36*
X429123Y-155989D02*
X416123Y-155989D01*
X416123Y-135989D01*
X429123Y-135989D01*
X429123Y-155989D01*
G37*
G36*
X324541Y-197168D02*
X324541Y-210168D01*
X304541Y-210168D01*
X304541Y-197168D01*
X324541Y-197168D01*
G37*
G36*
X324541Y-176168D02*
X324541Y-189168D01*
X304541Y-189168D01*
X304541Y-176168D01*
X324541Y-176168D01*
G37*
G36*
X426141Y-206296D02*
X426141Y-219296D01*
X406141Y-219296D01*
X406141Y-206296D01*
X426141Y-206296D01*
G37*
G36*
X426141Y-185296D02*
X426141Y-198296D01*
X406141Y-198296D01*
X406141Y-185296D01*
X426141Y-185296D01*
G37*
X314700Y-225718D02*
G54D13*
D03*
X314700Y-245518D02*
G54D13*
D03*
X415109Y-238021D02*
G54D13*
D03*
X415109Y-257821D02*
G54D13*
D03*
G36*
X293900Y-100206D02*
X306900Y-100206D01*
X306900Y-120206D01*
X293900Y-120206D01*
X293900Y-100206D01*
G37*
G36*
X272900Y-100206D02*
X285900Y-100206D01*
X285900Y-120206D01*
X272900Y-120206D01*
X272900Y-100206D01*
G37*
G36*
X401850Y-100206D02*
X414850Y-100206D01*
X414850Y-120206D01*
X401850Y-120206D01*
X401850Y-100206D01*
G37*
G36*
X380850Y-100206D02*
X393850Y-100206D01*
X393850Y-120206D01*
X380850Y-120206D01*
X380850Y-100206D01*
G37*
G36*
X238023Y-194390D02*
X238023Y-207390D01*
X218023Y-207390D01*
X218023Y-194390D01*
X238023Y-194390D01*
G37*
G36*
X238023Y-173390D02*
X238023Y-186390D01*
X218023Y-186390D01*
X218023Y-173390D01*
X238023Y-173390D01*
G37*
G36*
X349941Y-224552D02*
X349941Y-237552D01*
X329941Y-237552D01*
X329941Y-224552D01*
X349941Y-224552D01*
G37*
G36*
X349941Y-203552D02*
X349941Y-216552D01*
X329941Y-216552D01*
X329941Y-203552D01*
X349941Y-203552D01*
G37*
G36*
X257470Y-274955D02*
X257470Y-287955D01*
X237470Y-287955D01*
X237470Y-274955D01*
X257470Y-274955D01*
G37*
G36*
X257470Y-253955D02*
X257470Y-266955D01*
X237470Y-266955D01*
X237470Y-253955D01*
X257470Y-253955D01*
G37*
G36*
X365023Y-284480D02*
X365023Y-297480D01*
X345023Y-297480D01*
X345023Y-284480D01*
X365023Y-284480D01*
G37*
G36*
X365023Y-263480D02*
X365023Y-276480D01*
X345023Y-276480D01*
X345023Y-263480D01*
X365023Y-263480D01*
G37*
X333375Y-178469D02*
G54D14*
D03*
X458790Y-159820D02*
G54D14*
D03*
X331790Y-279270D02*
G54D14*
D03*
G36*
X277189Y-266307D02*
X264189Y-266307D01*
X264189Y-246307D01*
X277189Y-246307D01*
X277189Y-266307D01*
G37*
G36*
X298189Y-266307D02*
X285189Y-266307D01*
X285189Y-246307D01*
X298189Y-246307D01*
X298189Y-266307D01*
G37*
G36*
X351802Y-263132D02*
X338802Y-263132D01*
X338802Y-243132D01*
X351802Y-243132D01*
X351802Y-263132D01*
G37*
G36*
X372802Y-263132D02*
X359802Y-263132D01*
X359802Y-243132D01*
X372802Y-243132D01*
X372802Y-263132D01*
G37*
X117570Y-220410D02*
G54D14*
D03*
G36*
X181981Y-135925D02*
X194981Y-135925D01*
X194981Y-155925D01*
X181981Y-155925D01*
X181981Y-135925D01*
G37*
G36*
X160981Y-135925D02*
X173981Y-135925D01*
X173981Y-155925D01*
X160981Y-155925D01*
X160981Y-135925D01*
G37*
G36*
X176904Y-184071D02*
X176904Y-197071D01*
X156904Y-197071D01*
X156904Y-184071D01*
X176904Y-184071D01*
G37*
G36*
X176904Y-163071D02*
X176904Y-176071D01*
X156904Y-176071D01*
X156904Y-163071D01*
X176904Y-163071D01*
G37*
G36*
X340870Y-108664D02*
X340870Y-121664D01*
X320870Y-121664D01*
X320870Y-108664D01*
X340870Y-108664D01*
G37*
G36*
X340870Y-87664D02*
X340870Y-100664D01*
X320870Y-100664D01*
X320870Y-87664D01*
X340870Y-87664D01*
G37*
G36*
X366131Y-101000D02*
X379131Y-101000D01*
X379131Y-121000D01*
X366131Y-121000D01*
X366131Y-101000D01*
G37*
G36*
X345131Y-101000D02*
X358131Y-101000D01*
X358131Y-121000D01*
X345131Y-121000D01*
X345131Y-101000D01*
G37*
G36*
X439156Y-100206D02*
X452156Y-100206D01*
X452156Y-120206D01*
X439156Y-120206D01*
X439156Y-100206D01*
G37*
G36*
X418156Y-100206D02*
X431156Y-100206D01*
X431156Y-120206D01*
X418156Y-120206D01*
X418156Y-100206D01*
G37*
G36*
X346766Y-156290D02*
X346766Y-169290D01*
X326766Y-169290D01*
X326766Y-156290D01*
X346766Y-156290D01*
G37*
G36*
X346766Y-135290D02*
X346766Y-148290D01*
X326766Y-148290D01*
X326766Y-135290D01*
X346766Y-135290D01*
G37*
X407200Y-78060D02*
G54D14*
D03*
X255587Y-430881D02*
G54D15*
D03*
X255588Y-418181D02*
G54D15*
D03*
G36*
X248237Y-401231D02*
X262937Y-401231D01*
X262938Y-409731D01*
X248237Y-409731D01*
X248237Y-401231D01*
G37*
X255588Y-392781D02*
G54D15*
D03*
G36*
X299038Y-388531D02*
X313738Y-388531D01*
X313738Y-397031D01*
X299038Y-397031D01*
X299038Y-388531D01*
G37*
X306388Y-405481D02*
G54D15*
D03*
G36*
X299038Y-413931D02*
X313738Y-413931D01*
X313738Y-422431D01*
X299038Y-422431D01*
X299038Y-413931D01*
G37*
X306388Y-430881D02*
G54D15*
D03*
G36*
X265011Y-316628D02*
X265011Y-329628D01*
X245011Y-329628D01*
X245011Y-316628D01*
X265011Y-316628D01*
G37*
G36*
X265011Y-295628D02*
X265011Y-308628D01*
X245011Y-308628D01*
X245011Y-295628D01*
X265011Y-295628D01*
G37*
G36*
X365023Y-320596D02*
X365023Y-333596D01*
X345023Y-333596D01*
X345023Y-320596D01*
X365023Y-320596D01*
G37*
G36*
X365023Y-299596D02*
X365023Y-312596D01*
X345023Y-312596D01*
X345023Y-299596D01*
X365023Y-299596D01*
G37*
G36*
X401377Y-332996D02*
X388377Y-332996D01*
X388377Y-312996D01*
X401377Y-312996D01*
X401377Y-332996D01*
G37*
G36*
X422377Y-332996D02*
X409377Y-332996D01*
X409377Y-312996D01*
X422377Y-312996D01*
X422377Y-332996D01*
G37*
G36*
X404711Y-359490D02*
X404711Y-372490D01*
X384711Y-372490D01*
X384711Y-359490D01*
X404711Y-359490D01*
G37*
G36*
X404711Y-338490D02*
X404711Y-351490D01*
X384711Y-351490D01*
X384711Y-338490D01*
X404711Y-338490D01*
G37*
G36*
X364022Y-352304D02*
X364022Y-339304D01*
X384022Y-339304D01*
X384022Y-352304D01*
X364022Y-352304D01*
G37*
G36*
X364022Y-373304D02*
X364022Y-360304D01*
X384022Y-360304D01*
X384022Y-373304D01*
X364022Y-373304D01*
G37*
G36*
X339416Y-352304D02*
X339416Y-339304D01*
X359416Y-339304D01*
X359416Y-352304D01*
X339416Y-352304D01*
G37*
G36*
X339416Y-373304D02*
X339416Y-360304D01*
X359416Y-360304D01*
X359416Y-373304D01*
X339416Y-373304D01*
G37*
X373060Y-385642D02*
G54D14*
D03*
X254000Y-459060D02*
G54D14*
D03*
G36*
X360054Y-412629D02*
X360054Y-399629D01*
X380054Y-399629D01*
X380054Y-412629D01*
X360054Y-412629D01*
G37*
G36*
X360054Y-433629D02*
X360054Y-420629D01*
X380054Y-420629D01*
X380054Y-433629D01*
X360054Y-433629D01*
G37*
G36*
X383866Y-412629D02*
X383866Y-399629D01*
X403866Y-399629D01*
X403866Y-412629D01*
X383866Y-412629D01*
G37*
G36*
X383866Y-433629D02*
X383866Y-420629D01*
X403866Y-420629D01*
X403866Y-433629D01*
X383866Y-433629D01*
G37*
X382590Y-447550D02*
G54D14*
D03*
G36*
X206066Y-398738D02*
X206066Y-385738D01*
X226066Y-385738D01*
X226066Y-398738D01*
X206066Y-398738D01*
G37*
G36*
X206066Y-419738D02*
X206066Y-406738D01*
X226066Y-406738D01*
X226066Y-419738D01*
X206066Y-419738D01*
G37*
G36*
X337035Y-412629D02*
X337035Y-399629D01*
X357035Y-399629D01*
X357035Y-412629D01*
X337035Y-412629D01*
G37*
G36*
X337035Y-433629D02*
X337035Y-420629D01*
X357035Y-420629D01*
X357035Y-433629D01*
X337035Y-433629D01*
G37*
X254000Y-508000D02*
G54D16*
D03*
X279400Y-508000D02*
G54D16*
D03*
X304800Y-508000D02*
G54D16*
D03*
X25400Y-533400D02*
G54D16*
D03*
X25400Y-508000D02*
G54D16*
D03*
X25400Y-482600D02*
G54D16*
D03*
X25400Y-457200D02*
G54D16*
D03*
X25400Y-431800D02*
G54D16*
D03*
X25400Y-406400D02*
G54D16*
D03*
X25400Y-355600D02*
G54D16*
D03*
X25400Y-330200D02*
G54D16*
D03*
X25400Y-304800D02*
G54D16*
D03*
X25400Y-279400D02*
G54D16*
D03*
X25400Y-254000D02*
G54D16*
D03*
X25400Y-228600D02*
G54D16*
D03*
X508000Y-533400D02*
G54D16*
D03*
X508000Y-508000D02*
G54D16*
D03*
X508000Y-482600D02*
G54D16*
D03*
X508000Y-457200D02*
G54D16*
D03*
X508000Y-431800D02*
G54D16*
D03*
X508000Y-406400D02*
G54D16*
D03*
X508000Y-381000D02*
G54D16*
D03*
X508000Y-355600D02*
G54D16*
D03*
X508000Y-314325D02*
G54D16*
D03*
X508000Y-288925D02*
G54D16*
D03*
X508000Y-263525D02*
G54D16*
D03*
X508000Y-238125D02*
G54D16*
D03*
X508000Y-212725D02*
G54D16*
D03*
X508000Y-187325D02*
G54D16*
D03*
X508000Y-161925D02*
G54D16*
D03*
X508000Y-136525D02*
G54D16*
D03*
X25400Y-203200D02*
G54D16*
D03*
X25400Y-177800D02*
G54D16*
D03*
X68637Y-253103D02*
G54D13*
D03*
X68637Y-272903D02*
G54D13*
D03*
X253200Y-110330D02*
G54D14*
D03*
X508000Y-111125D02*
G54D16*
D03*
X508000Y-85725D02*
G54D16*
D03*
G36*
X259790Y-363782D02*
X272790Y-363782D01*
X272790Y-383782D01*
X259790Y-383782D01*
X259790Y-363782D01*
G37*
G36*
X238790Y-363782D02*
X251790Y-363782D01*
X251790Y-383782D01*
X238790Y-383782D01*
X238790Y-363782D01*
G37*
G36*
X251466Y-349192D02*
X251466Y-362192D01*
X231466Y-362192D01*
X231466Y-349192D01*
X251466Y-349192D01*
G37*
G36*
X251466Y-328192D02*
X251466Y-341192D01*
X231466Y-341192D01*
X231466Y-328192D01*
X251466Y-328192D01*
G37*
G36*
X275737Y-349588D02*
X275737Y-362588D01*
X255737Y-362588D01*
X255737Y-349588D01*
X275737Y-349588D01*
G37*
G36*
X275737Y-328588D02*
X275737Y-341588D01*
X255737Y-341588D01*
X255737Y-328588D01*
X275737Y-328588D01*
G37*
G36*
X276761Y-333234D02*
X276761Y-320234D01*
X296761Y-320234D01*
X296761Y-333234D01*
X276761Y-333234D01*
G37*
G36*
X276761Y-354234D02*
X276761Y-341234D01*
X296761Y-341234D01*
X296761Y-354234D01*
X276761Y-354234D01*
G37*
G36*
X318036Y-413402D02*
X318036Y-400402D01*
X338036Y-400402D01*
X338036Y-413402D01*
X318036Y-413402D01*
G37*
G36*
X318036Y-434402D02*
X318036Y-421402D01*
X338036Y-421402D01*
X338036Y-434402D01*
X318036Y-434402D01*
G37*
G36*
X317348Y-343635D02*
X317348Y-356635D01*
X297348Y-356635D01*
X297348Y-343635D01*
X317348Y-343635D01*
G37*
G36*
X317348Y-322635D02*
X317348Y-335635D01*
X297348Y-335635D01*
X297348Y-322635D01*
X317348Y-322635D01*
G37*
G36*
X337985Y-343238D02*
X337985Y-356238D01*
X317985Y-356238D01*
X317985Y-343238D01*
X337985Y-343238D01*
G37*
G36*
X337985Y-322238D02*
X337985Y-335238D01*
X317985Y-335238D01*
X317985Y-322238D01*
X337985Y-322238D01*
G37*
G36*
X366851Y-315771D02*
X366851Y-302771D01*
X386851Y-302771D01*
X386851Y-315771D01*
X366851Y-315771D01*
G37*
G36*
X366851Y-336771D02*
X366851Y-323771D01*
X386851Y-323771D01*
X386851Y-336771D01*
X366851Y-336771D01*
G37*
G36*
X144861Y-264352D02*
X144861Y-277352D01*
X124861Y-277352D01*
X124861Y-264352D01*
X144861Y-264352D01*
G37*
G36*
X144861Y-243352D02*
X144861Y-256352D01*
X124861Y-256352D01*
X124861Y-243352D01*
X144861Y-243352D01*
G37*
G36*
X110155Y-263880D02*
X110155Y-276880D01*
X90155Y-276880D01*
X90155Y-263880D01*
X110155Y-263880D01*
G37*
G36*
X110155Y-242880D02*
X110155Y-255880D01*
X90155Y-255880D01*
X90155Y-242880D01*
X110155Y-242880D01*
G37*
X336153Y-50800D02*
G54D16*
D03*
X336153Y-76597D02*
G54D16*
D03*
X310753Y-76200D02*
G54D16*
D03*
X310753Y-50800D02*
G54D16*
D03*
G36*
X282788Y-66075D02*
X295788Y-66075D01*
X295788Y-86075D01*
X282788Y-86075D01*
X282788Y-66075D01*
G37*
G36*
X261788Y-66075D02*
X274788Y-66075D01*
X274788Y-86075D01*
X261788Y-86075D01*
X261788Y-66075D01*
G37*
X247650Y-50800D02*
G54D16*
D03*
X249238Y-76200D02*
G54D16*
D03*
X198040Y-553516D02*
G54D17*
D03*
X217840Y-553516D02*
G54D17*
D03*
G36*
X259769Y-543912D02*
X272769Y-543912D01*
X272769Y-563912D01*
X259769Y-563912D01*
X259769Y-543912D01*
G37*
G36*
X238769Y-543912D02*
X251769Y-543912D01*
X251769Y-563912D01*
X238769Y-563912D01*
X238769Y-543912D01*
G37*
G36*
X371688Y-502638D02*
X384688Y-502638D01*
X384688Y-522638D01*
X371688Y-522638D01*
X371688Y-502638D01*
G37*
G36*
X350688Y-502638D02*
X363688Y-502638D01*
X363688Y-522638D01*
X350688Y-522638D01*
X350688Y-502638D01*
G37*
X145350Y-109680D02*
G54D14*
D03*
X205680Y-109680D02*
G54D14*
D03*
X145350Y-30300D02*
G54D14*
D03*
X145350Y-70790D02*
G54D14*
D03*
X116780Y-161270D02*
G54D14*
D03*
X246856Y-553641D02*
G54D18*
D03*
X265856Y-553641D02*
G54D18*
D03*
X378569Y-512365D02*
G54D18*
D03*
X359569Y-512365D02*
G54D18*
D03*
X215875Y-394518D02*
G54D19*
D03*
X215875Y-413518D02*
G54D19*
D03*
X120650Y-397272D02*
G54D18*
D03*
X139650Y-397272D02*
G54D18*
D03*
X132556Y-422672D02*
G54D18*
D03*
X151556Y-422672D02*
G54D18*
D03*
X169069Y-146844D02*
G54D18*
D03*
X188069Y-146844D02*
G54D18*
D03*
X167456Y-172665D02*
G54D19*
D03*
X167456Y-191665D02*
G54D19*
D03*
X228178Y-181396D02*
G54D19*
D03*
X228178Y-200396D02*
G54D19*
D03*
X280194Y-110331D02*
G54D18*
D03*
X299194Y-110331D02*
G54D18*
D03*
X268684Y-75803D02*
G54D18*
D03*
X287684Y-75803D02*
G54D18*
D03*
X329778Y-97260D02*
G54D19*
D03*
X329778Y-116260D02*
G54D19*
D03*
X378990Y-133771D02*
G54D19*
D03*
X378990Y-152771D02*
G54D19*
D03*
X403225Y-146447D02*
G54D18*
D03*
X422225Y-146447D02*
G54D18*
D03*
X425847Y-110331D02*
G54D18*
D03*
X444847Y-110331D02*
G54D18*
D03*
X335731Y-141710D02*
G54D19*
D03*
X335731Y-160710D02*
G54D19*
D03*
X292100Y-279797D02*
G54D18*
D03*
X311100Y-279797D02*
G54D18*
D03*
X269875Y-255588D02*
G54D18*
D03*
X288875Y-255588D02*
G54D18*
D03*
X223018Y-261565D02*
G54D19*
D03*
X223018Y-280565D02*
G54D19*
D03*
X314301Y-181794D02*
G54D19*
D03*
X314301Y-200794D02*
G54D19*
D03*
X388144Y-110331D02*
G54D18*
D03*
X407144Y-110331D02*
G54D18*
D03*
X350441Y-110331D02*
G54D18*
D03*
X369441Y-110331D02*
G54D18*
D03*
X354781Y-269900D02*
G54D19*
D03*
X354781Y-288900D02*
G54D19*
D03*
X398066Y-323056D02*
G54D18*
D03*
X417066Y-323056D02*
G54D18*
D03*
X354385Y-308000D02*
G54D19*
D03*
X354385Y-327000D02*
G54D19*
D03*
X376213Y-308397D02*
G54D19*
D03*
X376213Y-327397D02*
G54D19*
D03*
X349622Y-348084D02*
G54D19*
D03*
X349622Y-367084D02*
G54D19*
D03*
X372243Y-348084D02*
G54D19*
D03*
X372243Y-367084D02*
G54D19*
D03*
X327000Y-409203D02*
G54D19*
D03*
X327000Y-428203D02*
G54D19*
D03*
X255165Y-299665D02*
G54D19*
D03*
X255165Y-318665D02*
G54D19*
D03*
X247253Y-375444D02*
G54D18*
D03*
X266253Y-375444D02*
G54D18*
D03*
X241275Y-337368D02*
G54D19*
D03*
X241275Y-356368D02*
G54D19*
D03*
X264690Y-337368D02*
G54D19*
D03*
X264690Y-356368D02*
G54D19*
D03*
X285725Y-329034D02*
G54D19*
D03*
X285725Y-348034D02*
G54D19*
D03*
X327000Y-409203D02*
G54D19*
D03*
X327000Y-428203D02*
G54D19*
D03*
X347637Y-409203D02*
G54D19*
D03*
X347637Y-428203D02*
G54D19*
D03*
X370259Y-409600D02*
G54D19*
D03*
X370259Y-428600D02*
G54D19*
D03*
X392881Y-409600D02*
G54D19*
D03*
X392881Y-428600D02*
G54D19*
D03*
X307950Y-329431D02*
G54D19*
D03*
X308346Y-349622D02*
G54D19*
D03*
X328984Y-329431D02*
G54D19*
D03*
X328984Y-349622D02*
G54D19*
D03*
X247625Y-261565D02*
G54D19*
D03*
X247228Y-281359D02*
G54D19*
D03*
X344884Y-252412D02*
G54D18*
D03*
X365472Y-252016D02*
G54D18*
D03*
X277787Y-131788D02*
G54D19*
D03*
X278184Y-151978D02*
G54D19*
D03*
X299218Y-131788D02*
G54D19*
D03*
X299218Y-151978D02*
G54D19*
D03*
X416296Y-193303D02*
G54D19*
D03*
X416296Y-213096D02*
G54D19*
D03*
X339700Y-210765D02*
G54D19*
D03*
X339700Y-230559D02*
G54D19*
D03*
X63500Y-475460D02*
G54D14*
D03*
X459980Y-262730D02*
G54D14*
D03*
X459580Y-400050D02*
G54D14*
D03*
X458790Y-17860D02*
G54D14*
D03*
X252810Y-582220D02*
G54D14*
D03*
X458390Y-582610D02*
G54D14*
D03*
X44055Y-29770D02*
G54D14*
D03*
X354810Y-17070D02*
G54D14*
D03*
X245670Y-16270D02*
G54D14*
D03*
X44450Y-109140D02*
G54D14*
D03*
X409575Y-521891D02*
G54D20*
D03*
X449475Y-521891D02*
G54D20*
D03*
X411559Y-459978D02*
G54D20*
D03*
X451459Y-459978D02*
G54D20*
D03*
X307288Y-539643D02*
G54D21*
D03*
X307288Y-579543D02*
G54D21*
D03*
X366819Y-539246D02*
G54D21*
D03*
X366819Y-579146D02*
G54D21*
D03*
X99987Y-250453D02*
G54D19*
D03*
X99987Y-269453D02*
G54D19*
D03*
X134912Y-250453D02*
G54D19*
D03*
X134912Y-269453D02*
G54D19*
D03*
X198040Y-553516D02*
G54D18*
D03*
X217040Y-553516D02*
G54D18*
D03*
X68637Y-253103D02*
G54D19*
D03*
X68637Y-272103D02*
G54D19*
D03*
X314700Y-225718D02*
G54D19*
D03*
X314700Y-244718D02*
G54D19*
D03*
X415109Y-238021D02*
G54D19*
D03*
X415109Y-257021D02*
G54D19*
D03*
M02*
