%FSLAX34Y34*%
%MOMM*%
%LNSILK_TOP*%
G71*
G01*
%ADD10C, 3.20*%
%ADD11C, 3.00*%
%ADD12C, 3.20*%
%ADD13C, 0.67*%
%ADD14C, 2.00*%
%ADD15C, 0.73*%
%ADD16C, 0.73*%
%ADD17C, 2.20*%
%ADD18C, 2.00*%
%ADD19C, 2.20*%
%LPD*%
G36*
X0Y0D02*
X530000Y0D01*
X530000Y-600000D01*
X0Y-600000D01*
X0Y0D01*
G37*
%LPC*%
X184781Y-334381D02*
G54D10*
D03*
X134781Y-334381D02*
G54D10*
D03*
X333375Y-178469D02*
G54D11*
D03*
X458790Y-159820D02*
G54D11*
D03*
X331790Y-279270D02*
G54D11*
D03*
X117570Y-220410D02*
G54D11*
D03*
X407200Y-78060D02*
G54D11*
D03*
X373060Y-385642D02*
G54D11*
D03*
X254000Y-459060D02*
G54D11*
D03*
X382590Y-447550D02*
G54D11*
D03*
X254000Y-508000D02*
G54D12*
D03*
X279400Y-508000D02*
G54D12*
D03*
X304800Y-508000D02*
G54D12*
D03*
X25400Y-533400D02*
G54D12*
D03*
X25400Y-508000D02*
G54D12*
D03*
X25400Y-482600D02*
G54D12*
D03*
X25400Y-457200D02*
G54D12*
D03*
X25400Y-431800D02*
G54D12*
D03*
X25400Y-406400D02*
G54D12*
D03*
X25400Y-355600D02*
G54D12*
D03*
X25400Y-330200D02*
G54D12*
D03*
X25400Y-304800D02*
G54D12*
D03*
X25400Y-279400D02*
G54D12*
D03*
X25400Y-254000D02*
G54D12*
D03*
X25400Y-228600D02*
G54D12*
D03*
X508000Y-533400D02*
G54D12*
D03*
X508000Y-508000D02*
G54D12*
D03*
X508000Y-482600D02*
G54D12*
D03*
X508000Y-457200D02*
G54D12*
D03*
X508000Y-431800D02*
G54D12*
D03*
X508000Y-406400D02*
G54D12*
D03*
X508000Y-381000D02*
G54D12*
D03*
X508000Y-355600D02*
G54D12*
D03*
X508000Y-314325D02*
G54D12*
D03*
X508000Y-288925D02*
G54D12*
D03*
X508000Y-263525D02*
G54D12*
D03*
X508000Y-238125D02*
G54D12*
D03*
X508000Y-212725D02*
G54D12*
D03*
X508000Y-187325D02*
G54D12*
D03*
X508000Y-161925D02*
G54D12*
D03*
X508000Y-136525D02*
G54D12*
D03*
X25400Y-203200D02*
G54D12*
D03*
X25400Y-177800D02*
G54D12*
D03*
X253200Y-110330D02*
G54D11*
D03*
X508000Y-111125D02*
G54D12*
D03*
X508000Y-85725D02*
G54D12*
D03*
X336153Y-50800D02*
G54D12*
D03*
X336153Y-76597D02*
G54D12*
D03*
X310753Y-76200D02*
G54D12*
D03*
X310753Y-50800D02*
G54D12*
D03*
X247650Y-50800D02*
G54D12*
D03*
X249238Y-76200D02*
G54D12*
D03*
X145350Y-109680D02*
G54D11*
D03*
X205680Y-109680D02*
G54D11*
D03*
X145350Y-30300D02*
G54D11*
D03*
X145350Y-70790D02*
G54D11*
D03*
X116780Y-161270D02*
G54D11*
D03*
X63500Y-475460D02*
G54D11*
D03*
X459980Y-262730D02*
G54D11*
D03*
X459580Y-400050D02*
G54D11*
D03*
X458790Y-17860D02*
G54D11*
D03*
X252810Y-582220D02*
G54D11*
D03*
X458390Y-582610D02*
G54D11*
D03*
X44055Y-29770D02*
G54D11*
D03*
X354810Y-17070D02*
G54D11*
D03*
X245670Y-16270D02*
G54D11*
D03*
X44450Y-109140D02*
G54D11*
D03*
%LPD*%
G54D13*
G36*
X330042Y-178469D02*
X330042Y-162969D01*
X336708Y-162969D01*
X336708Y-178469D01*
X330042Y-178469D01*
G37*
G36*
X333375Y-175135D02*
X348875Y-175135D01*
X348875Y-181802D01*
X333375Y-181802D01*
X333375Y-175135D01*
G37*
G36*
X336708Y-178469D02*
X336708Y-193969D01*
X330042Y-193969D01*
X330042Y-178469D01*
X336708Y-178469D01*
G37*
G36*
X333375Y-181802D02*
X317875Y-181802D01*
X317875Y-175135D01*
X333375Y-175135D01*
X333375Y-181802D01*
G37*
G54D14*
G36*
X448790Y-159820D02*
X448790Y-144320D01*
X468790Y-144320D01*
X468790Y-159820D01*
X448790Y-159820D01*
G37*
G36*
X458790Y-149820D02*
X474290Y-149820D01*
X474290Y-169820D01*
X458790Y-169820D01*
X458790Y-149820D01*
G37*
G36*
X468790Y-159820D02*
X468790Y-175320D01*
X448790Y-175320D01*
X448790Y-159820D01*
X468790Y-159820D01*
G37*
G36*
X458790Y-169820D02*
X443290Y-169820D01*
X443290Y-149820D01*
X458790Y-149820D01*
X458790Y-169820D01*
G37*
G54D13*
G36*
X335123Y-279270D02*
X335123Y-294770D01*
X328457Y-294770D01*
X328457Y-279270D01*
X335123Y-279270D01*
G37*
G36*
X331790Y-282603D02*
X316290Y-282603D01*
X316290Y-275937D01*
X331790Y-275937D01*
X331790Y-282603D01*
G37*
G54D14*
G36*
X110499Y-213339D02*
X121459Y-202379D01*
X135601Y-216521D01*
X124641Y-227481D01*
X110499Y-213339D01*
G37*
G36*
X124641Y-213339D02*
X135601Y-224299D01*
X121459Y-238441D01*
X110499Y-227481D01*
X124641Y-213339D01*
G37*
G36*
X124641Y-227481D02*
X113681Y-238441D01*
X99539Y-224299D01*
X110499Y-213339D01*
X124641Y-227481D01*
G37*
G36*
X110499Y-227481D02*
X99539Y-216521D01*
X113681Y-202379D01*
X124641Y-213339D01*
X110499Y-227481D01*
G37*
G54D14*
G36*
X397200Y-78060D02*
X397200Y-62560D01*
X417200Y-62560D01*
X417200Y-78060D01*
X397200Y-78060D01*
G37*
G36*
X407200Y-68060D02*
X422700Y-68060D01*
X422700Y-88060D01*
X407200Y-88060D01*
X407200Y-68060D01*
G37*
G36*
X417200Y-78060D02*
X417200Y-93560D01*
X397200Y-93560D01*
X397200Y-78060D01*
X417200Y-78060D01*
G37*
G36*
X407200Y-88060D02*
X391700Y-88060D01*
X391700Y-68060D01*
X407200Y-68060D01*
X407200Y-88060D01*
G37*
G54D13*
G36*
X369727Y-385642D02*
X369727Y-370142D01*
X376393Y-370142D01*
X376393Y-385642D01*
X369727Y-385642D01*
G37*
G36*
X373060Y-382309D02*
X388560Y-382309D01*
X388560Y-388976D01*
X373060Y-388976D01*
X373060Y-382309D01*
G37*
G36*
X373060Y-388976D02*
X357560Y-388976D01*
X357560Y-382309D01*
X373060Y-382309D01*
X373060Y-388976D01*
G37*
G54D14*
G36*
X244000Y-459060D02*
X244000Y-443560D01*
X264000Y-443560D01*
X264000Y-459060D01*
X244000Y-459060D01*
G37*
G36*
X246929Y-451989D02*
X257889Y-441029D01*
X272031Y-455171D01*
X261071Y-466131D01*
X246929Y-451989D01*
G37*
G36*
X254000Y-449060D02*
X269500Y-449060D01*
X269500Y-469060D01*
X254000Y-469060D01*
X254000Y-449060D01*
G37*
G36*
X261071Y-451989D02*
X272031Y-462949D01*
X257889Y-477091D01*
X246929Y-466131D01*
X261071Y-451989D01*
G37*
G36*
X264000Y-459060D02*
X264000Y-474560D01*
X244000Y-474560D01*
X244000Y-459060D01*
X264000Y-459060D01*
G37*
G36*
X261071Y-466131D02*
X250111Y-477091D01*
X235969Y-462949D01*
X246929Y-451989D01*
X261071Y-466131D01*
G37*
G36*
X254000Y-469060D02*
X238500Y-469060D01*
X238500Y-449060D01*
X254000Y-449060D01*
X254000Y-469060D01*
G37*
G36*
X246929Y-466131D02*
X235969Y-455171D01*
X250111Y-441029D01*
X261071Y-451989D01*
X246929Y-466131D01*
G37*
G54D14*
G36*
X372590Y-447550D02*
X372590Y-432050D01*
X392590Y-432050D01*
X392590Y-447550D01*
X372590Y-447550D01*
G37*
G36*
X375519Y-440479D02*
X386479Y-429519D01*
X400621Y-443661D01*
X389661Y-454621D01*
X375519Y-440479D01*
G37*
G36*
X382590Y-437550D02*
X398090Y-437550D01*
X398090Y-457550D01*
X382590Y-457550D01*
X382590Y-437550D01*
G37*
G36*
X389661Y-440479D02*
X400621Y-451439D01*
X386479Y-465581D01*
X375519Y-454621D01*
X389661Y-440479D01*
G37*
G36*
X392590Y-447550D02*
X392590Y-463050D01*
X372590Y-463050D01*
X372590Y-447550D01*
X392590Y-447550D01*
G37*
G36*
X389661Y-454621D02*
X378701Y-465581D01*
X364559Y-451439D01*
X375519Y-440479D01*
X389661Y-454621D01*
G37*
G36*
X382590Y-457550D02*
X367090Y-457550D01*
X367090Y-437550D01*
X382590Y-437550D01*
X382590Y-457550D01*
G37*
G36*
X375519Y-454621D02*
X364559Y-443661D01*
X378701Y-429519D01*
X389661Y-440479D01*
X375519Y-454621D01*
G37*
G54D15*
G36*
X301133Y-508000D02*
X301133Y-491500D01*
X308467Y-491500D01*
X308467Y-508000D01*
X301133Y-508000D01*
G37*
G36*
X302207Y-505407D02*
X313875Y-493740D01*
X319060Y-498926D01*
X307393Y-510593D01*
X302207Y-505407D01*
G37*
G36*
X307393Y-505407D02*
X319060Y-517074D01*
X313875Y-522260D01*
X302207Y-510593D01*
X307393Y-505407D01*
G37*
G36*
X308467Y-508000D02*
X308467Y-524500D01*
X301133Y-524500D01*
X301133Y-508000D01*
X308467Y-508000D01*
G37*
G36*
X307393Y-510593D02*
X295725Y-522260D01*
X290540Y-517074D01*
X302207Y-505407D01*
X307393Y-510593D01*
G37*
G36*
X302207Y-510593D02*
X290540Y-498926D01*
X295725Y-493740D01*
X307393Y-505407D01*
X302207Y-510593D01*
G37*
G54D15*
G36*
X21733Y-330200D02*
X21733Y-313700D01*
X29067Y-313700D01*
X29067Y-330200D01*
X21733Y-330200D01*
G37*
G36*
X25400Y-326533D02*
X41900Y-326533D01*
X41900Y-333867D01*
X25400Y-333867D01*
X25400Y-326533D01*
G37*
G54D15*
G36*
X25400Y-301133D02*
X41900Y-301133D01*
X41900Y-308467D01*
X25400Y-308467D01*
X25400Y-301133D01*
G37*
G36*
X29067Y-304800D02*
X29067Y-321300D01*
X21733Y-321300D01*
X21733Y-304800D01*
X29067Y-304800D01*
G37*
G54D16*
G36*
X249567Y-110330D02*
X249567Y-94830D01*
X256833Y-94830D01*
X256833Y-110330D01*
X249567Y-110330D01*
G37*
G36*
X253200Y-106697D02*
X268700Y-106697D01*
X268700Y-113963D01*
X253200Y-113963D01*
X253200Y-106697D01*
G37*
G36*
X256833Y-110330D02*
X256833Y-125830D01*
X249567Y-125830D01*
X249567Y-110330D01*
X256833Y-110330D01*
G37*
G36*
X253200Y-113963D02*
X237700Y-113963D01*
X237700Y-106697D01*
X253200Y-106697D01*
X253200Y-113963D01*
G37*
G54D14*
G36*
X138279Y-102609D02*
X149239Y-91649D01*
X163381Y-105791D01*
X152421Y-116751D01*
X138279Y-102609D01*
G37*
G36*
X145350Y-99680D02*
X160850Y-99680D01*
X160850Y-119680D01*
X145350Y-119680D01*
X145350Y-99680D01*
G37*
G36*
X152421Y-102609D02*
X163381Y-113569D01*
X149239Y-127711D01*
X138279Y-116751D01*
X152421Y-102609D01*
G37*
G36*
X152421Y-116751D02*
X141461Y-127711D01*
X127319Y-113569D01*
X138279Y-102609D01*
X152421Y-116751D01*
G37*
G36*
X138279Y-116751D02*
X127319Y-105791D01*
X141461Y-91649D01*
X152421Y-102609D01*
X138279Y-116751D01*
G37*
G54D14*
G36*
X195680Y-109680D02*
X195680Y-94180D01*
X215680Y-94180D01*
X215680Y-109680D01*
X195680Y-109680D01*
G37*
G36*
X198609Y-102609D02*
X209569Y-91649D01*
X223711Y-105791D01*
X212751Y-116751D01*
X198609Y-102609D01*
G37*
G36*
X205680Y-99680D02*
X221180Y-99680D01*
X221180Y-119680D01*
X205680Y-119680D01*
X205680Y-99680D01*
G37*
G36*
X212751Y-102609D02*
X223711Y-113569D01*
X209569Y-127711D01*
X198609Y-116751D01*
X212751Y-102609D01*
G37*
G36*
X215680Y-109680D02*
X215680Y-125180D01*
X195680Y-125180D01*
X195680Y-109680D01*
X215680Y-109680D01*
G37*
G36*
X212751Y-116751D02*
X201791Y-127711D01*
X187649Y-113569D01*
X198609Y-102609D01*
X212751Y-116751D01*
G37*
G36*
X205680Y-119680D02*
X190180Y-119680D01*
X190180Y-99680D01*
X205680Y-99680D01*
X205680Y-119680D01*
G37*
G36*
X198609Y-116751D02*
X187649Y-105791D01*
X201791Y-91649D01*
X212751Y-102609D01*
X198609Y-116751D01*
G37*
G54D14*
G36*
X138279Y-23229D02*
X149239Y-12269D01*
X163381Y-26411D01*
X152421Y-37371D01*
X138279Y-23229D01*
G37*
G36*
X152421Y-23229D02*
X163381Y-34189D01*
X149239Y-48331D01*
X138279Y-37371D01*
X152421Y-23229D01*
G37*
G36*
X152421Y-37371D02*
X141461Y-48331D01*
X127319Y-34189D01*
X138279Y-23229D01*
X152421Y-37371D01*
G37*
G36*
X138279Y-37371D02*
X127319Y-26411D01*
X141461Y-12269D01*
X152421Y-23229D01*
X138279Y-37371D01*
G37*
G54D14*
G36*
X138279Y-63719D02*
X149239Y-52759D01*
X163381Y-66901D01*
X152421Y-77861D01*
X138279Y-63719D01*
G37*
G36*
X145350Y-60790D02*
X160850Y-60790D01*
X160850Y-80790D01*
X145350Y-80790D01*
X145350Y-60790D01*
G37*
G36*
X152421Y-63719D02*
X163381Y-74679D01*
X149239Y-88821D01*
X138279Y-77861D01*
X152421Y-63719D01*
G37*
G36*
X152421Y-77861D02*
X141461Y-88821D01*
X127319Y-74679D01*
X138279Y-63719D01*
X152421Y-77861D01*
G37*
G36*
X138279Y-77861D02*
X127319Y-66901D01*
X141461Y-52759D01*
X152421Y-63719D01*
X138279Y-77861D01*
G37*
G54D14*
G36*
X109709Y-154199D02*
X120669Y-143239D01*
X134811Y-157381D01*
X123851Y-168341D01*
X109709Y-154199D01*
G37*
G36*
X123851Y-154199D02*
X134811Y-165159D01*
X120669Y-179301D01*
X109709Y-168341D01*
X123851Y-154199D01*
G37*
G36*
X123851Y-168341D02*
X112891Y-179301D01*
X98749Y-165159D01*
X109709Y-154199D01*
X123851Y-168341D01*
G37*
G36*
X109709Y-168341D02*
X98749Y-157381D01*
X112891Y-143239D01*
X123851Y-154199D01*
X109709Y-168341D01*
G37*
G54D14*
G36*
X53500Y-475460D02*
X53500Y-459960D01*
X73500Y-459960D01*
X73500Y-475460D01*
X53500Y-475460D01*
G37*
G36*
X63500Y-465460D02*
X79000Y-465460D01*
X79000Y-485460D01*
X63500Y-485460D01*
X63500Y-465460D01*
G37*
G36*
X73500Y-475460D02*
X73500Y-490960D01*
X53500Y-490960D01*
X53500Y-475460D01*
X73500Y-475460D01*
G37*
G36*
X63500Y-485460D02*
X48000Y-485460D01*
X48000Y-465460D01*
X63500Y-465460D01*
X63500Y-485460D01*
G37*
G54D14*
G36*
X449980Y-262730D02*
X449980Y-247230D01*
X469980Y-247230D01*
X469980Y-262730D01*
X449980Y-262730D01*
G37*
G36*
X459980Y-252730D02*
X475480Y-252730D01*
X475480Y-272730D01*
X459980Y-272730D01*
X459980Y-252730D01*
G37*
G36*
X469980Y-262730D02*
X469980Y-278230D01*
X449980Y-278230D01*
X449980Y-262730D01*
X469980Y-262730D01*
G37*
G36*
X459980Y-272730D02*
X444480Y-272730D01*
X444480Y-252730D01*
X459980Y-252730D01*
X459980Y-272730D01*
G37*
G54D14*
G36*
X449580Y-400050D02*
X449580Y-384550D01*
X469580Y-384550D01*
X469580Y-400050D01*
X449580Y-400050D01*
G37*
G36*
X459580Y-390050D02*
X475080Y-390050D01*
X475080Y-410050D01*
X459580Y-410050D01*
X459580Y-390050D01*
G37*
G36*
X469580Y-400050D02*
X469580Y-415550D01*
X449580Y-415550D01*
X449580Y-400050D01*
X469580Y-400050D01*
G37*
G36*
X459580Y-410050D02*
X444080Y-410050D01*
X444080Y-390050D01*
X459580Y-390050D01*
X459580Y-410050D01*
G37*
G54D14*
G36*
X448790Y-17860D02*
X448790Y-2360D01*
X468790Y-2360D01*
X468790Y-17860D01*
X448790Y-17860D01*
G37*
G36*
X458790Y-7860D02*
X474290Y-7860D01*
X474290Y-27860D01*
X458790Y-27860D01*
X458790Y-7860D01*
G37*
G36*
X468790Y-17860D02*
X468790Y-33360D01*
X448790Y-33360D01*
X448790Y-17860D01*
X468790Y-17860D01*
G37*
G36*
X458790Y-27860D02*
X443290Y-27860D01*
X443290Y-7860D01*
X458790Y-7860D01*
X458790Y-27860D01*
G37*
G54D14*
G36*
X242810Y-582220D02*
X242810Y-566720D01*
X262810Y-566720D01*
X262810Y-582220D01*
X242810Y-582220D01*
G37*
G36*
X252810Y-572220D02*
X268310Y-572220D01*
X268310Y-592220D01*
X252810Y-592220D01*
X252810Y-572220D01*
G37*
G36*
X262810Y-582220D02*
X262810Y-597720D01*
X242810Y-597720D01*
X242810Y-582220D01*
X262810Y-582220D01*
G37*
G36*
X252810Y-592220D02*
X237310Y-592220D01*
X237310Y-572220D01*
X252810Y-572220D01*
X252810Y-592220D01*
G37*
G54D14*
G36*
X448390Y-582610D02*
X448390Y-567110D01*
X468390Y-567110D01*
X468390Y-582610D01*
X448390Y-582610D01*
G37*
G36*
X458390Y-572610D02*
X473890Y-572610D01*
X473890Y-592610D01*
X458390Y-592610D01*
X458390Y-572610D01*
G37*
G36*
X468390Y-582610D02*
X468390Y-598110D01*
X448390Y-598110D01*
X448390Y-582610D01*
X468390Y-582610D01*
G37*
G36*
X458390Y-592610D02*
X442890Y-592610D01*
X442890Y-572610D01*
X458390Y-572610D01*
X458390Y-592610D01*
G37*
G54D14*
G36*
X34055Y-29770D02*
X34055Y-14270D01*
X54055Y-14270D01*
X54055Y-29770D01*
X34055Y-29770D01*
G37*
G36*
X44055Y-19770D02*
X59555Y-19770D01*
X59555Y-39770D01*
X44055Y-39770D01*
X44055Y-19770D01*
G37*
G36*
X54055Y-29770D02*
X54055Y-45270D01*
X34055Y-45270D01*
X34055Y-29770D01*
X54055Y-29770D01*
G37*
G36*
X44055Y-39770D02*
X28555Y-39770D01*
X28555Y-19770D01*
X44055Y-19770D01*
X44055Y-39770D01*
G37*
G54D14*
G36*
X344810Y-17070D02*
X344810Y-1570D01*
X364810Y-1570D01*
X364810Y-17070D01*
X344810Y-17070D01*
G37*
G36*
X354810Y-7070D02*
X370310Y-7070D01*
X370310Y-27070D01*
X354810Y-27070D01*
X354810Y-7070D01*
G37*
G36*
X364810Y-17070D02*
X364810Y-32570D01*
X344810Y-32570D01*
X344810Y-17070D01*
X364810Y-17070D01*
G37*
G36*
X354810Y-27070D02*
X339310Y-27070D01*
X339310Y-7070D01*
X354810Y-7070D01*
X354810Y-27070D01*
G37*
G54D14*
G36*
X235670Y-16270D02*
X235670Y-770D01*
X255670Y-770D01*
X255670Y-16270D01*
X235670Y-16270D01*
G37*
G36*
X245670Y-6270D02*
X261170Y-6270D01*
X261170Y-26270D01*
X245670Y-26270D01*
X245670Y-6270D01*
G37*
G36*
X255670Y-16270D02*
X255670Y-31770D01*
X235670Y-31770D01*
X235670Y-16270D01*
X255670Y-16270D01*
G37*
G36*
X245670Y-26270D02*
X230170Y-26270D01*
X230170Y-6270D01*
X245670Y-6270D01*
X245670Y-26270D01*
G37*
G54D14*
G36*
X34450Y-109140D02*
X34450Y-93640D01*
X54450Y-93640D01*
X54450Y-109140D01*
X34450Y-109140D01*
G37*
G36*
X44450Y-99140D02*
X59950Y-99140D01*
X59950Y-119140D01*
X44450Y-119140D01*
X44450Y-99140D01*
G37*
G36*
X54450Y-109140D02*
X54450Y-124640D01*
X34450Y-124640D01*
X34450Y-109140D01*
X54450Y-109140D01*
G37*
G36*
X44450Y-119140D02*
X28950Y-119140D01*
X28950Y-99140D01*
X44450Y-99140D01*
X44450Y-119140D01*
G37*
X184781Y-334381D02*
G54D17*
D03*
X134781Y-334381D02*
G54D17*
D03*
X333375Y-178469D02*
G54D18*
D03*
X458790Y-159820D02*
G54D18*
D03*
X331790Y-279270D02*
G54D18*
D03*
X117570Y-220410D02*
G54D18*
D03*
X407200Y-78060D02*
G54D18*
D03*
X373060Y-385642D02*
G54D18*
D03*
X254000Y-459060D02*
G54D18*
D03*
X382590Y-447550D02*
G54D18*
D03*
X254000Y-508000D02*
G54D19*
D03*
X279400Y-508000D02*
G54D19*
D03*
X304800Y-508000D02*
G54D19*
D03*
X25400Y-533400D02*
G54D19*
D03*
X25400Y-508000D02*
G54D19*
D03*
X25400Y-482600D02*
G54D19*
D03*
X25400Y-457200D02*
G54D19*
D03*
X25400Y-431800D02*
G54D19*
D03*
X25400Y-406400D02*
G54D19*
D03*
X25400Y-355600D02*
G54D19*
D03*
X25400Y-330200D02*
G54D19*
D03*
X25400Y-304800D02*
G54D19*
D03*
X25400Y-279400D02*
G54D19*
D03*
X25400Y-254000D02*
G54D19*
D03*
X25400Y-228600D02*
G54D19*
D03*
X508000Y-533400D02*
G54D19*
D03*
X508000Y-508000D02*
G54D19*
D03*
X508000Y-482600D02*
G54D19*
D03*
X508000Y-457200D02*
G54D19*
D03*
X508000Y-431800D02*
G54D19*
D03*
X508000Y-406400D02*
G54D19*
D03*
X508000Y-381000D02*
G54D19*
D03*
X508000Y-355600D02*
G54D19*
D03*
X508000Y-314325D02*
G54D19*
D03*
X508000Y-288925D02*
G54D19*
D03*
X508000Y-263525D02*
G54D19*
D03*
X508000Y-238125D02*
G54D19*
D03*
X508000Y-212725D02*
G54D19*
D03*
X508000Y-187325D02*
G54D19*
D03*
X508000Y-161925D02*
G54D19*
D03*
X508000Y-136525D02*
G54D19*
D03*
X25400Y-203200D02*
G54D19*
D03*
X25400Y-177800D02*
G54D19*
D03*
X253200Y-110330D02*
G54D18*
D03*
X508000Y-111125D02*
G54D19*
D03*
X508000Y-85725D02*
G54D19*
D03*
X336153Y-50800D02*
G54D19*
D03*
X336153Y-76597D02*
G54D19*
D03*
X310753Y-76200D02*
G54D19*
D03*
X310753Y-50800D02*
G54D19*
D03*
X247650Y-50800D02*
G54D19*
D03*
X249238Y-76200D02*
G54D19*
D03*
X145350Y-109680D02*
G54D18*
D03*
X205680Y-109680D02*
G54D18*
D03*
X145350Y-30300D02*
G54D18*
D03*
X145350Y-70790D02*
G54D18*
D03*
X116780Y-161270D02*
G54D18*
D03*
X63500Y-475460D02*
G54D18*
D03*
X459980Y-262730D02*
G54D18*
D03*
X459580Y-400050D02*
G54D18*
D03*
X458790Y-17860D02*
G54D18*
D03*
X252810Y-582220D02*
G54D18*
D03*
X458390Y-582610D02*
G54D18*
D03*
X44055Y-29770D02*
G54D18*
D03*
X354810Y-17070D02*
G54D18*
D03*
X245670Y-16270D02*
G54D18*
D03*
X44450Y-109140D02*
G54D18*
D03*
M02*
