; Drill file
; Format: 2.4 (00.0000)
M48
INCH
T01C0.0236
T02C0.0394
%
G05
G90
T01
X002500Y-018720
X005310Y-013160
X007270Y-013160
X004630Y-008680
X004600Y-006350
X005720Y-004320
X005720Y-002790
X005720Y-001190
X008100Y-004320
X009970Y-004340
X009670Y-000640
X013970Y-000670
X016030Y-003070
X018060Y-000700
X018060Y-006290
X018110Y-010340
X013060Y-010990
X013120Y-007030
X014690Y-015180
X015060Y-017620
X018090Y-015750
X018050Y-022940
X009950Y-022920
X010000Y-018070
X001750Y-004300
X001730Y-001170
T02
X001000Y-021000
X001000Y-020000
X001000Y-019000
X001000Y-018000
X001000Y-017000
X001000Y-016000
X001000Y-014000
X001000Y-013000
X001000Y-012000
X001000Y-011000
X001000Y-010000
X001000Y-009000
X001000Y-008000
X001000Y-007000
X009810Y-003000
X009750Y-002000
X012230Y-002000
X013230Y-002000
X013230Y-003020
X012230Y-003000
X020000Y-003380
X020000Y-004380
X020000Y-005370
X020000Y-006370
X020000Y-007380
X020000Y-008380
X020000Y-009380
X020000Y-010380
X020000Y-011370
X020000Y-012380
X020000Y-014000
X020000Y-015000
X020000Y-016000
X020000Y-017000
X020000Y-018000
X020000Y-019000
X020000Y-020000
X020000Y-021000
X012000Y-020000
X011000Y-020000
X010000Y-020000
M30
