%FSLAX34Y34*%
%MOMM*%
%LNSMDMASK_TOP*%
G71*
G01*
%ADD10R, 0.50X1.50*%
%ADD11R, 0.85X1.47*%
%ADD12R, 1.60X1.00*%
%ADD13R, 1.47X0.85*%
%ADD14R, 1.00X1.60*%
%ADD15R, 1.50X1.80*%
%ADD16R, 1.80X1.50*%
%ADD17R, 1.58X2.99*%
%ADD18R, 2.99X1.58*%
%LPD*%
X166781Y-234381D02*
G54D10*
D03*
X171781Y-234381D02*
G54D10*
D03*
X176781Y-234381D02*
G54D10*
D03*
X181781Y-234381D02*
G54D10*
D03*
X186781Y-234381D02*
G54D10*
D03*
X166781Y-283381D02*
G54D10*
D03*
X171781Y-283381D02*
G54D10*
D03*
X176781Y-283381D02*
G54D10*
D03*
X181781Y-283381D02*
G54D10*
D03*
X186781Y-283381D02*
G54D10*
D03*
X253135Y-180027D02*
G54D11*
D03*
X265835Y-180027D02*
G54D11*
D03*
X278535Y-180027D02*
G54D11*
D03*
X291235Y-180027D02*
G54D11*
D03*
X291235Y-230827D02*
G54D11*
D03*
X278535Y-230827D02*
G54D11*
D03*
X265835Y-230827D02*
G54D11*
D03*
X253135Y-230827D02*
G54D11*
D03*
X354735Y-180027D02*
G54D11*
D03*
X367435Y-180027D02*
G54D11*
D03*
X380135Y-180027D02*
G54D11*
D03*
X392835Y-180027D02*
G54D11*
D03*
X392835Y-230827D02*
G54D11*
D03*
X380135Y-230827D02*
G54D11*
D03*
X367435Y-230827D02*
G54D11*
D03*
X354735Y-230827D02*
G54D11*
D03*
X314700Y-225718D02*
G54D12*
D03*
X314700Y-245518D02*
G54D12*
D03*
X415109Y-238021D02*
G54D12*
D03*
X415109Y-257821D02*
G54D12*
D03*
X255587Y-430881D02*
G54D13*
D03*
X255588Y-418181D02*
G54D13*
D03*
G36*
X248237Y-401231D02*
X262937Y-401231D01*
X262938Y-409731D01*
X248237Y-409731D01*
X248237Y-401231D01*
G37*
X255588Y-392781D02*
G54D13*
D03*
G36*
X299038Y-388531D02*
X313738Y-388531D01*
X313738Y-397031D01*
X299038Y-397031D01*
X299038Y-388531D01*
G37*
X306388Y-405481D02*
G54D13*
D03*
G36*
X299038Y-413931D02*
X313738Y-413931D01*
X313738Y-422431D01*
X299038Y-422431D01*
X299038Y-413931D01*
G37*
X306388Y-430881D02*
G54D13*
D03*
X68637Y-253103D02*
G54D12*
D03*
X68637Y-272903D02*
G54D12*
D03*
X198040Y-553516D02*
G54D14*
D03*
X217840Y-553516D02*
G54D14*
D03*
X246856Y-553641D02*
G54D15*
D03*
X265856Y-553641D02*
G54D15*
D03*
X378569Y-512365D02*
G54D15*
D03*
X359569Y-512365D02*
G54D15*
D03*
X215875Y-394518D02*
G54D16*
D03*
X215875Y-413518D02*
G54D16*
D03*
X120650Y-397272D02*
G54D15*
D03*
X139650Y-397272D02*
G54D15*
D03*
X132556Y-422672D02*
G54D15*
D03*
X151556Y-422672D02*
G54D15*
D03*
X169069Y-146844D02*
G54D15*
D03*
X188069Y-146844D02*
G54D15*
D03*
X167456Y-172665D02*
G54D16*
D03*
X167456Y-191665D02*
G54D16*
D03*
X228178Y-181396D02*
G54D16*
D03*
X228178Y-200396D02*
G54D16*
D03*
X280194Y-110331D02*
G54D15*
D03*
X299194Y-110331D02*
G54D15*
D03*
X268684Y-75803D02*
G54D15*
D03*
X287684Y-75803D02*
G54D15*
D03*
X329778Y-97260D02*
G54D16*
D03*
X329778Y-116260D02*
G54D16*
D03*
X378990Y-133771D02*
G54D16*
D03*
X378990Y-152771D02*
G54D16*
D03*
X403225Y-146447D02*
G54D15*
D03*
X422225Y-146447D02*
G54D15*
D03*
X425847Y-110331D02*
G54D15*
D03*
X444847Y-110331D02*
G54D15*
D03*
X335731Y-141710D02*
G54D16*
D03*
X335731Y-160710D02*
G54D16*
D03*
X292100Y-279797D02*
G54D15*
D03*
X311100Y-279797D02*
G54D15*
D03*
X269875Y-255588D02*
G54D15*
D03*
X288875Y-255588D02*
G54D15*
D03*
X223018Y-261565D02*
G54D16*
D03*
X223018Y-280565D02*
G54D16*
D03*
X314301Y-181794D02*
G54D16*
D03*
X314301Y-200794D02*
G54D16*
D03*
X388144Y-110331D02*
G54D15*
D03*
X407144Y-110331D02*
G54D15*
D03*
X350441Y-110331D02*
G54D15*
D03*
X369441Y-110331D02*
G54D15*
D03*
X354781Y-269900D02*
G54D16*
D03*
X354781Y-288900D02*
G54D16*
D03*
X398066Y-323056D02*
G54D15*
D03*
X417066Y-323056D02*
G54D15*
D03*
X354385Y-308000D02*
G54D16*
D03*
X354385Y-327000D02*
G54D16*
D03*
X376213Y-308397D02*
G54D16*
D03*
X376213Y-327397D02*
G54D16*
D03*
X349622Y-348084D02*
G54D16*
D03*
X349622Y-367084D02*
G54D16*
D03*
X372243Y-348084D02*
G54D16*
D03*
X372243Y-367084D02*
G54D16*
D03*
X327000Y-409203D02*
G54D16*
D03*
X327000Y-428203D02*
G54D16*
D03*
X255165Y-299665D02*
G54D16*
D03*
X255165Y-318665D02*
G54D16*
D03*
X247253Y-375444D02*
G54D15*
D03*
X266253Y-375444D02*
G54D15*
D03*
X241275Y-337368D02*
G54D16*
D03*
X241275Y-356368D02*
G54D16*
D03*
X264690Y-337368D02*
G54D16*
D03*
X264690Y-356368D02*
G54D16*
D03*
X285725Y-329034D02*
G54D16*
D03*
X285725Y-348034D02*
G54D16*
D03*
X327000Y-409203D02*
G54D16*
D03*
X327000Y-428203D02*
G54D16*
D03*
X347637Y-409203D02*
G54D16*
D03*
X347637Y-428203D02*
G54D16*
D03*
X370259Y-409600D02*
G54D16*
D03*
X370259Y-428600D02*
G54D16*
D03*
X392881Y-409600D02*
G54D16*
D03*
X392881Y-428600D02*
G54D16*
D03*
X307950Y-329431D02*
G54D16*
D03*
X308346Y-349622D02*
G54D16*
D03*
X328984Y-329431D02*
G54D16*
D03*
X328984Y-349622D02*
G54D16*
D03*
X247625Y-261565D02*
G54D16*
D03*
X247228Y-281359D02*
G54D16*
D03*
X344884Y-252412D02*
G54D15*
D03*
X365472Y-252016D02*
G54D15*
D03*
X277787Y-131788D02*
G54D16*
D03*
X278184Y-151978D02*
G54D16*
D03*
X299218Y-131788D02*
G54D16*
D03*
X299218Y-151978D02*
G54D16*
D03*
X416296Y-193303D02*
G54D16*
D03*
X416296Y-213096D02*
G54D16*
D03*
X339700Y-210765D02*
G54D16*
D03*
X339700Y-230559D02*
G54D16*
D03*
X409575Y-521891D02*
G54D17*
D03*
X449475Y-521891D02*
G54D17*
D03*
X411559Y-459978D02*
G54D17*
D03*
X451459Y-459978D02*
G54D17*
D03*
X307288Y-539643D02*
G54D18*
D03*
X307288Y-579543D02*
G54D18*
D03*
X366819Y-539246D02*
G54D18*
D03*
X366819Y-579146D02*
G54D18*
D03*
X99987Y-250453D02*
G54D16*
D03*
X99987Y-269453D02*
G54D16*
D03*
X134912Y-250453D02*
G54D16*
D03*
X134912Y-269453D02*
G54D16*
D03*
X198040Y-553516D02*
G54D15*
D03*
X217040Y-553516D02*
G54D15*
D03*
X68637Y-253103D02*
G54D16*
D03*
X68637Y-272103D02*
G54D16*
D03*
X314700Y-225718D02*
G54D16*
D03*
X314700Y-244718D02*
G54D16*
D03*
X415109Y-238021D02*
G54D16*
D03*
X415109Y-257021D02*
G54D16*
D03*
M02*
